<svg height="720" viewBox="0 0 720 720" width="720" xmlns="http://www.w3.org/2000/svg"
  xmlns:xlink="http://www.w3.org/1999/xlink">
  <mask id="a" fill="#fff">
    <path d="m.0001 0h721.999v721.155931h-721.999z" fill="#fff" fill-rule="evenodd" />
  </mask>
  <mask id="b" fill="#fff">
    <path d="m0 .9914h722v1.0086h-722z" fill="#fff" fill-rule="evenodd" />
  </mask>
  <g fill="none" fill-rule="evenodd">
    <path d="m0 0h720v720h-720z" fill="#000" />
    <g transform="translate(-1 -1)">
      <path
        d="m494.6031 368.8278c14.165 0 28.336.244 42.492-.1 7.456-.18 14.967-.941 22.307-2.255 7.704-1.379 10.233-4.343 10.714-12.224 1.618-26.494-9.098-46.995-31.431-61.026-36.581-22.984-92.036-14.371-122.693 19.087-26.624 29.057-36.055 63.701-30.03 102.194 12.82 81.895 98.525 101.177 149.705 68.894 15.379-9.701 26.605-22.993 34.207-39.426 1.712-3.704.173-7.602-3.903-9.931-3.524-2.014-6.052-1.544-8.858 2.005-3.879 4.905-8.165 9.916-13.314 13.309-17.709 11.669-37.135 11.682-56.663 5.824-32.327-9.698-53.95-40.499-54.632-76.848-.166-8.845.365-9.465 9.105-9.488 17.665-.047 35.329-.014 52.994-.015zm-177.366-.998c.095 1.876.251 3.498.251 5.12.013 39.66.596 79.332-.239 118.973-.415 19.728-2.456 39.552-5.493 59.064-5.012 32.201-19.975 58.335-50.125 73.839-3.234 1.663-3.978 5.587-1.584 8.881 2.058 2.829 4.654 5.893 8.647 3.078 10.472-7.382 21.251-14.426 31.097-22.583 23.717-19.649 41.633-43.544 49.709-73.743 5.591-20.902 6.255-42.432 6.487-63.935.653-60.628 1.238-121.258 1.872-181.886.054-5.185-1.888-6.492-7.086-5.623-13.107 2.191-26.218 5.264-39.417 5.818-27.943 1.173-55.944 1.022-83.923 1.285-7.041.066-9.263-2.326-9.392-9.917-.414-24.51.131-48.973 4.915-73.13 3.156-15.941 7.65-31.409 17.771-44.562 14.404-18.722 37.623-23.154 57.92-11.141 10.563 6.252 18.522 15.104 25.002 25.387 7.151 11.348 19.727 12.927 29.517 3.68 7.124-6.728 8.442-17.752 3.192-27.65-4.555-8.586-11.871-14.294-20.304-18.613-18.836-9.644-38.9-11.517-59.34-7.644-38.868 7.366-64.49 31.454-80.561 66.469-12.294 26.786-16.356 55.413-16.528 84.623-.041 6.966-2.635 11.328-8.766 14.139-6.199 2.842-12.217 6.089-18.453 8.843-3.682 1.626-4.259 4.263-3.654 7.696.612 3.473 3.046 3.802 5.976 3.736 5.329-.122 10.666-.118 15.995.019 7.134.182 8.345 1.43 8.744 8.497.065 1.163.031 2.333.031 3.499.001 40.992.067 81.986-.067 122.978-.021 6.632-.654 13.297-1.509 19.882-.86 6.623-4.861 10.855-11.517 12.131-4.734.908-9.528 1.502-14.299 2.212-5.265.784-6.677 2.713-6.119 8.046.49 4.68 3.048 5.818 7.507 5.608 14.465-.68 28.95-1.358 43.424-1.312 17.811.057 35.621.776 53.426 1.357 4.82.157 5.46-3.089 5.712-6.48.238-3.214.083-6.473-4.518-6.815-5.644-.42-11.27-1.083-16.902-1.656-9.602-.974-14.01-5.058-15.48-14.6-.531-3.448-.952-6.955-.965-10.437-.118-30.326-.134-60.652-.157-90.978 0-.62.279-1.241.499-2.155zm-317.237 353.162v-720.992h721.999v720.992c-1.995.054-3.99.164131-5.985.164131-236.676 0-473.352 0-710.028 0-1.995 0-3.991-.110131-5.986-.164131z"
        fill="#000" mask="url(#a)" />
      <g fill="#fff">
        <path
          d="m0 .9914c1.995.055 3.991.159 5.986.159 236.676.007 473.352.007 710.028-.001 1.995 0 3.99-.103 5.986-.158-.167.333-.316.943-.502.955-1.329.084-2.665.045-3.998.045-237.667 0-475.333.001-713-.042-1.5 0-3-.625-4.5-.958"
          mask="url(#b)" transform="translate(0 720)" />
        <path
          d="m258.5162 351.8278c4.991 0 10.001.274 14.971-.055 11.425-.757 22.878-1.435 34.227-2.872 7.531-.954 9.401-3.98 9.283-11.628-.205-13.299-5.424-18.88-18.864-19.045-23.289-.286-46.583-.228-69.875-.195-7.652.01-10.021 2.467-10.22 10.301-.155 6.152.21 12.325-.124 18.463-.223 4.092 1.339 5.153 5.163 5.095 11.811-.178 23.626-.064 35.439-.064m58.721 16.002h-98.704c-.22.914-.499 1.535-.499 2.155.023 30.326.039 60.652.157 90.978.013 3.482.434 6.989.965 10.437 1.47 9.542 5.878 13.626 15.48 14.6 5.632.573 11.258 1.236 16.901 1.656 4.602.342 4.757 3.601 4.519 6.815-.252 3.391-.893 6.637-5.712 6.48-17.805-.581-35.615-1.3-53.426-1.357-14.474-.046-28.959.632-43.424 1.312-4.459.21-7.018-.928-7.507-5.608-.558-5.333.854-7.262 6.119-8.046 4.771-.71 9.565-1.304 14.299-2.212 6.656-1.276 10.657-5.508 11.517-12.131.855-6.585 1.488-13.25 1.509-19.882.134-40.992.067-81.986.066-122.978 0-1.166.035-2.336-.03-3.499-.399-7.067-1.61-8.315-8.744-8.497-5.329-.137-10.666-.141-15.996-.019-2.929.066-5.363-.263-5.975-3.736-.605-3.433-.028-6.07 3.654-7.696 6.236-2.754 12.254-6.001 18.453-8.843 6.131-2.811 8.725-7.173 8.766-14.139.172-29.21 4.234-57.837 16.528-84.623 16.071-35.015 41.693-59.103 80.561-66.469 20.44-3.873 40.504-2 59.34 7.644 8.433 4.319 15.749 10.027 20.304 18.613 5.25 9.898 3.931 20.922-3.192 27.65-9.79 9.247-22.366 7.668-29.517-3.68-6.48-10.283-14.439-19.135-25.002-25.387-20.297-12.013-43.516-7.581-57.92 11.141-10.121 13.153-14.615 28.621-17.772 44.562-4.783 24.157-5.328 48.62-4.914 73.13.129 7.591 2.35 9.983 9.392 9.917 27.978-.263 55.979-.112 83.923-1.285 13.199-.554 26.309-3.627 39.417-5.818 5.198-.869 7.139.438 7.086 5.623-.634 60.628-1.219 121.258-1.872 181.886-.232 21.503-.896 43.033-6.487 63.935-8.076 30.199-25.992 54.094-49.71 73.743-9.845 8.157-20.624 15.201-31.096 22.583-3.993 2.815-6.589-.249-8.647-3.078-2.394-3.294-1.65-7.218 1.584-8.881 30.15-15.504 45.113-41.638 50.125-73.839 3.037-19.512 5.078-39.336 5.493-59.064.835-39.641.252-79.313.239-118.973 0-1.622-.156-3.244-.251-5.12" />
        <path
          d="m471.0181 347.9953c6.984 0 13.979.242 20.95-.072 6.283-.282 12.618-.75 18.785-1.91 6.704-1.263 9.758-5.528 10.069-12.337.748-16.37-10.575-30.136-26.746-32.771-28.177-4.591-50.848 16.596-56.924 39.306-1.598 5.972-.237 7.653 5.929 7.741 9.31.133 18.624.035 27.937.043m23.585 20.833c-17.665 0-35.329-.032-52.994.015-8.74.023-9.271.643-9.105 9.487.682 36.35 22.305 67.15 54.632 76.849 19.528 5.858 38.954 5.844 56.663-5.825 5.149-3.392 9.435-8.404 13.314-13.308 2.806-3.549 5.334-4.02 8.858-2.005 4.076 2.328 5.615 6.226 3.902 9.931-7.601 16.432-18.827 29.724-34.206 39.425-51.18 32.284-136.885 13.001-149.705-68.893-6.025-38.493 3.406-73.137 30.03-102.194 30.657-33.459 86.112-42.071 122.693-19.087 22.333 14.031 33.049 34.532 31.431 61.026-.481 7.881-3.01 10.844-10.714 12.224-7.34 1.314-14.851 2.074-22.307 2.255-14.156.344-28.327.1-42.492.1" />
      </g>
      <path
        d="m258.5162 351.8273c-11.813 0-23.628-.113-35.439.065-3.824.058-5.386-1.003-5.163-5.096.334-6.138-.031-12.311.124-18.463.199-7.834 2.568-10.29 10.22-10.301 23.292-.033 46.586-.09 69.875.196 13.44.165 18.659 5.746 18.864 19.044.118 7.649-1.752 10.674-9.283 11.628-11.349 1.438-22.802 2.115-34.227 2.872-4.97.33-9.98.055-14.971.055"
        fill="#000" />
      <path
        d="m471.0181 347.9914c-9.313-.004-18.627.094-27.937-.039-6.166-.088-7.527-1.769-5.929-7.741 6.076-22.71 28.747-43.897 56.924-39.306 16.171 2.635 27.494 16.4 26.746 32.771-.311 6.809-3.365 11.074-10.069 12.336-6.167 1.161-12.502 1.628-18.785 1.911-6.971.314-13.966.072-20.95.068"
        fill="#000" />
    </g>
  </g>
</svg>