<svg viewBox="0 0 720 720" width="720" height="720" xmlns="http://www.w3.org/2000/svg"
  xmlns:xlink="http://www.w3.org/1999/xlink">
  <path
    d="M 217.039 327.333 C 217.238 319.499 219.607 317.043 227.259 317.032 C 250.551 316.999 273.845 316.942 297.134 317.228 C 310.574 317.393 315.793 322.974 315.998 336.272 C 316.001 336.493 316.003 336.711 316.003 336.924 C 316.003 344.094 314.028 346.975 306.715 347.901 C 295.366 349.338 283.913 350.016 272.488 350.773 C 267.518 351.102 262.508 350.828 257.517 350.828 C 245.704 350.828 233.889 350.714 222.078 350.892 C 218.254 350.95 216.692 349.889 216.915 345.797 C 217.028 343.714 217.061 341.627 217.061 339.539 C 217.061 336.657 216.999 333.771 216.999 330.887 C 216.999 329.702 217.009 328.517 217.039 327.333 Z M 0 0 L 720 0 L 720 720 L 0 720 L 0 0 Z M 316.489 371.95 C 316.502 411.61 317.085 451.282 316.25 490.923 C 315.835 510.651 313.794 530.475 310.757 549.987 C 305.745 582.188 290.782 608.322 260.632 623.826 C 257.398 625.489 256.654 629.413 259.048 632.707 C 261.106 635.536 263.702 638.6 267.695 635.785 C 278.167 628.403 288.946 621.359 298.791 613.202 C 322.509 593.553 340.425 569.658 348.501 539.459 C 354.092 518.557 354.756 497.027 354.988 475.524 C 355.641 414.896 356.226 354.266 356.86 293.638 C 356.913 288.453 354.972 287.146 349.774 288.015 C 336.666 290.206 323.556 293.279 310.357 293.833 C 282.413 295.006 254.412 294.855 226.434 295.118 C 219.392 295.184 217.171 292.792 217.042 285.201 C 216.628 260.691 217.173 236.228 221.956 212.071 C 225.113 196.13 229.607 180.662 239.728 167.509 C 254.132 148.787 277.351 144.355 297.648 156.368 C 308.211 162.62 316.17 171.472 322.65 181.755 C 329.801 193.103 342.377 194.682 352.167 185.435 C 359.29 178.707 360.609 167.683 355.359 157.785 C 350.804 149.199 343.488 143.491 335.055 139.172 C 316.219 129.528 296.155 127.655 275.715 131.528 C 236.847 138.894 211.225 162.982 195.154 197.997 C 182.86 224.783 178.798 253.41 178.626 282.62 C 178.585 289.586 175.991 293.948 169.86 296.759 C 163.661 299.601 157.643 302.848 151.407 305.602 C 147.725 307.228 147.148 309.865 147.753 313.298 C 148.365 316.771 150.799 317.1 153.728 317.034 C 159.058 316.912 164.395 316.916 169.724 317.053 C 176.858 317.235 178.069 318.483 178.468 325.55 C 178.533 326.713 178.498 327.883 178.498 329.049 C 178.499 370.041 178.566 411.035 178.432 452.027 C 178.411 458.659 177.778 465.324 176.923 471.909 C 176.063 478.532 172.062 482.764 165.406 484.04 C 160.672 484.948 155.878 485.542 151.107 486.252 C 145.842 487.036 144.43 488.965 144.988 494.298 C 145.477 498.978 148.036 500.116 152.495 499.906 C 166.96 499.226 181.445 498.548 195.919 498.594 C 213.73 498.651 231.54 499.37 249.345 499.951 C 254.164 500.108 254.805 496.862 255.057 493.471 C 255.295 490.257 255.14 486.998 250.538 486.656 C 244.895 486.236 239.269 485.573 233.637 485 C 224.035 484.026 219.627 479.942 218.157 470.4 C 217.626 466.952 217.205 463.445 217.192 459.963 C 217.074 429.637 217.058 399.311 217.035 368.985 C 217.035 368.365 217.314 367.744 217.534 366.83 L 316.238 366.83 C 316.333 368.706 316.489 370.328 316.489 371.95 Z M 509.753 345.013 C 503.586 346.173 497.251 346.641 490.968 346.923 C 483.997 347.237 477.002 346.995 470.018 346.995 C 460.705 346.987 451.391 347.085 442.081 346.952 C 435.915 346.864 434.554 345.183 436.152 339.211 C 442.228 316.501 464.899 295.314 493.076 299.905 C 509.247 302.54 520.57 316.305 519.822 332.676 C 519.511 339.485 516.457 343.75 509.753 345.013 Z M 536.095 367.728 C 543.551 367.547 551.062 366.787 558.402 365.473 C 566.106 364.093 568.635 361.13 569.116 353.249 C 570.734 326.755 560.018 306.254 537.685 292.223 C 501.104 269.239 445.649 277.851 414.992 311.31 C 388.368 340.367 378.937 375.011 384.962 413.504 C 397.782 495.398 483.487 514.681 534.667 482.397 C 550.046 472.696 561.272 459.404 568.873 442.972 C 570.586 439.267 569.047 435.369 564.971 433.041 C 561.447 431.026 558.919 431.497 556.113 435.046 C 552.234 439.95 547.948 444.962 542.799 448.354 C 525.09 460.023 505.664 460.037 486.136 454.179 C 453.809 444.48 432.186 413.68 431.504 377.33 C 431.338 368.486 431.869 367.866 440.609 367.843 C 458.274 367.796 475.938 367.828 493.603 367.828 C 507.768 367.828 521.939 368.072 536.095 367.728 Z"
    fill="#000" fill-rule="evenodd"></path>
</svg>