<svg enable-background="new 0 0 720 720" height="720" viewBox="0 0 720 720" width="720" xmlns="http://www.w3.org/2000/svg"><path d="m0 720c0-240 0-480 0-720h720v720c-240 0-480 0-720 0zm316.3-353.1c.1 1.7.2 3 .2 4.3 0 40 .2 80-.1 120-.2 21.5-2 42.9-6.5 64-6.4 30-21.1 54-49.1 68.5-4.4 2.3-3.5 5.6-2 8.8 1.9 4 6.1 5.3 9.3 2.9 12.7-9.4 26-18.2 37.7-28.7 21.6-19.4 37.2-43 43.6-71.8 4.4-19.4 5.2-39.2 5.4-59.1.7-60.8 1.2-121.6 1.9-182.4.1-5-2-6.3-7.3-5.4-12.1 2.1-24.2 5.2-36.4 5.6-28.8 1.2-57.6 1.1-86.4 1.4-7.3.1-9.6-2.2-9.7-9.5-.4-24.8.1-49.6 5-74.1 3.2-15.9 7.8-31.3 18-44.4 13.9-17.9 36.5-22.4 56.3-11.4 11.5 6.4 20 15.9 26.8 26.9 5.3 8.6 12.9 11 22.3 7.1 11.4-4.7 16.2-17 11.2-29.2-4.2-10.1-12.2-16.6-21.6-21.3-20.7-10.5-42.5-11.9-64.7-6.5-36.2 8.7-60.1 32.2-75.2 65.3-12.3 26.8-16.4 55.4-16.5 84.6 0 7.2-2.8 11.6-9.1 14.4-6.2 2.8-12.2 6.1-18.4 8.8-3.5 1.6-3.8 4.2-3.4 7.4.5 3.5 2.8 4 5.8 3.9 5.5-.1 11-.1 16.5 0 6.5.1 7.8 1.4 8.4 7.8.1 1.3.1 2.7.1 4 0 41 .1 82-.1 123 0 6.8-.7 13.6-1.6 20.4-.9 6.4-4.8 10.5-11.3 11.8-5.1 1-10.2 1.8-15.3 2.4-5.1.5-5.7 3.8-5.3 7.8.4 4.1 2.2 6 6.8 5.8 18.8-.7 37.6-1.3 56.4-1.4 13.5 0 27 .7 40.4 1.4 4.9.3 6-2.5 6.4-6.3.3-3.9-.4-6.9-5.4-7.1-5.3-.3-10.6-1-15.9-1.5-9.7-.9-14.5-5.3-15.7-14.9-.6-4.9-1-10-1.1-14.9-.1-27.7 0-55.3 0-83 0-1.6 0-3.3 0-5.3 33.6-.1 66.3-.1 99.6-.1zm172.6.9c15.7 0 31.3.2 47-.1 7.6-.2 15.3-1 22.8-2.4 7.6-1.4 9.6-4.3 10.5-11.9 3.1-27.3-13.7-54.5-40.9-66.4-40.4-17.6-91.7-4.4-119.3 31.1-22.7 29.1-29.7 62.4-23.6 98.4 3.6 21.4 12.8 40.6 29.3 54.9 32.9 28.5 70.2 33 109.9 16.2 20.6-8.7 34.9-24.5 44.3-44.8 1.7-3.7.2-7.6-3.9-9.9-3.5-2-6.1-1.6-8.8 2-3.4 4.5-7.2 8.9-11.7 12.1-18 12.9-38 13-58.2 7-32.8-9.8-54.7-41.5-54.8-78.2 0-7.2.7-8.1 7.9-8.1 16.5.1 33 .1 49.5.1z" fill="none"/><path d="m316.3 366.9c-33.3 0-66 0-99.3 0v5.3c0 27.7-.1 55.3 0 83 0 5 .4 10 1.1 14.9 1.2 9.7 6 14 15.7 14.9 5.3.5 10.6 1.3 15.9 1.5 4.9.2 5.7 3.2 5.4 7.1-.3 3.8-1.4 6.6-6.4 6.3-13.5-.7-26.9-1.4-40.4-1.4-18.8.1-37.6.7-56.4 1.4-4.6.2-6.4-1.7-6.8-5.8-.4-4 .2-7.2 5.3-7.8 5.1-.5 10.2-1.4 15.3-2.4 6.4-1.2 10.4-5.4 11.3-11.8.9-6.7 1.6-13.6 1.6-20.4.1-41 .1-82 .1-123 0-1.3 0-2.7-.1-4-.6-6.5-1.8-7.7-8.4-7.8-5.5-.1-11-.1-16.5 0-3 .1-5.3-.4-5.8-3.9-.5-3.2-.2-5.8 3.4-7.4 6.2-2.8 12.2-6 18.4-8.8 6.3-2.9 9.1-7.2 9.1-14.4.1-29.2 4.3-57.8 16.5-84.6 15.1-33 39-56.6 75.2-65.3 22.2-5.3 44-3.9 64.7 6.5 9.4 4.8 17.4 11.2 21.6 21.3 5 12.2.3 24.5-11.2 29.2-9.4 3.9-16.9 1.5-22.3-7.1-6.8-11.1-15.3-20.5-26.8-26.9-19.8-11-42.4-6.4-56.3 11.4-10.2 13.1-14.8 28.5-18 44.4-4.9 24.5-5.4 49.3-5 74.1.1 7.3 2.5 9.6 9.7 9.5 28.8-.3 57.6-.2 86.4-1.4 12.2-.5 24.3-3.5 36.4-5.6 5.2-.9 7.3.4 7.3 5.4-.6 60.8-1.2 121.6-1.9 182.4-.2 19.8-1 39.6-5.4 59.1-6.5 28.8-22 52.4-43.6 71.8-11.7 10.5-25 19.3-37.7 28.7-3.3 2.4-7.4 1.1-9.3-2.9-1.6-3.2-2.5-6.5 2-8.8 28-14.4 42.7-38.5 49.1-68.5 4.5-21.1 6.3-42.5 6.5-64 .3-40 .1-80 .1-120-.3-1.2-.4-2.5-.5-4.2zm-58.4-16c4.8 0 9.7.3 14.5-.1 11.6-.8 23.2-1.7 34.7-2.9 4.9-.5 8.3-3.1 8.8-8.5 1.5-14.4-4.8-22.1-19.2-22.2-23.3-.2-46.6-.2-69.9-.1-7.1 0-9.6 2.5-9.8 9.7-.2 6.3.2 12.7-.1 19-.3 4.4 1.6 5.3 5.5 5.3 11.8-.3 23.7-.2 35.5-.2z"/><path d="m488.9 367.8c-16.5 0-33-.1-49.5 0-7.2 0-8 .9-7.9 8.1 0 36.7 21.9 68.4 54.8 78.2 20.2 6 40.2 5.9 58.2-7 4.5-3.2 8.3-7.7 11.7-12.1 2.7-3.6 5.3-4 8.8-2 4 2.3 5.6 6.2 3.9 9.9-9.4 20.3-23.7 36.1-44.3 44.8-39.6 16.7-76.9 12.3-109.9-16.2-16.5-14.3-25.7-33.5-29.3-54.9-6.1-36 .9-69.2 23.6-98.4 27.6-35.5 78.9-48.7 119.3-31.1 27.2 11.8 43.9 39 40.9 66.4-.9 7.6-2.9 10.5-10.5 11.9-7.5 1.4-15.2 2.2-22.8 2.4-15.7.3-31.3 0-47 0zm-18.9-20.8c2.3 0 4.7.1 7 0 10.9-.6 21.9-.7 32.8-2 6.7-.8 9.8-5.5 10.1-12.3.7-14.7-8.7-28-22.9-31.9-29.2-8-55.8 15.1-61 39.9-1 4.8.3 6.2 5.6 6.3 9.4.1 18.9 0 28.4 0z"/><g fill="none"><path d="m257.9 350.9c-11.8 0-23.6-.1-35.5.1-3.9.1-5.8-.8-5.5-5.3.4-6.3 0-12.7.1-19 .2-7.2 2.7-9.7 9.8-9.7 23.3 0 46.6-.1 69.9.1 14.4.1 20.7 7.8 19.2 22.2-.6 5.5-4 8-8.8 8.5-11.6 1.2-23.1 2.1-34.7 2.9-4.8.5-9.7.2-14.5.2z"/><path d="m470 347c-9.5 0-19 .1-28.5 0-5.3-.1-6.6-1.5-5.6-6.3 5.2-24.8 31.9-47.8 61-39.9 14.2 3.9 23.6 17.2 22.9 31.9-.3 6.8-3.4 11.4-10.1 12.3-10.9 1.3-21.8 1.4-32.8 2-2.2.1-4.6 0-6.9 0z"/></g></svg>