<?xml version="1.0" standalone="no"?>
<!DOCTYPE svg PUBLIC "-//W3C//DTD SVG 20010904//EN"
 "http://www.w3.org/TR/2001/REC-SVG-20010904/DTD/svg10.dtd">
<svg version="1.0" xmlns="http://www.w3.org/2000/svg"
 width="720.000000pt" height="720.000000pt" viewBox="0 0 720.000000 720.000000"
 preserveAspectRatio="xMidYMid meet">
<metadata>
Created by potrace 1.11, written by Peter Selinger 2001-2013
</metadata>
<g transform="translate(0.000000,720.000000) scale(0.100000,-0.100000)"
fill="#000000" stroke="none">
<path d="M2928 5906 c-1 -2 -37 -6 -78 -10 -93 -7 -117 -12 -205 -38 -348
-102 -621 -391 -755 -798 -32 -98 -74 -283 -84 -380 -4 -30 -9 -75 -12 -100
-3 -25 -6 -95 -8 -157 -2 -85 -7 -117 -20 -137 -11 -17 -64 -50 -149 -92 -72
-36 -133 -66 -133 -67 -1 -1 -4 -16 -7 -33 -9 -57 6 -63 144 -65 91 -1 130 -5
144 -15 19 -14 20 -31 19 -717 0 -386 -4 -731 -8 -767 -4 -36 -15 -81 -25
-100 -28 -55 -55 -65 -246 -95 -47 -8 -55 -17 -55 -67 0 -65 10 -68 188 -61
200 8 466 9 701 1 166 -6 186 -5 198 10 14 19 17 80 5 99 -5 8 -51 17 -113 23
-132 14 -170 24 -201 55 -50 50 -52 63 -55 618 l-4 517 23 1 c13 1 234 2 491
3 410 1 470 -1 476 -14 17 -34 4 -1465 -14 -1580 -2 -14 -6 -47 -10 -75 -11
-95 -13 -110 -33 -201 -53 -237 -134 -403 -259 -527 -60 -60 -160 -134 -225
-168 -34 -17 -38 -24 -38 -57 0 -25 7 -43 20 -55 30 -25 64 -31 79 -13 8 9 17
16 22 16 5 0 41 23 81 50 378 261 607 551 702 890 9 30 18 73 22 95 3 22 8 47
9 55 2 8 6 38 9 65 4 28 9 68 12 90 6 45 12 492 19 1415 2 338 7 654 10 701 5
82 5 86 -17 96 -16 7 -36 7 -68 -3 -57 -16 -215 -42 -300 -48 -36 -3 -94 -8
-130 -11 -36 -4 -238 -6 -449 -6 -376 0 -385 0 -405 21 -20 20 -21 31 -21 238
0 264 8 365 42 552 69 384 236 608 473 638 192 24 371 -77 519 -293 27 -38 57
-77 67 -86 88 -76 262 -10 298 112 64 217 -195 440 -539 465 -44 3 -85 7 -92
9 -6 2 -13 2 -15 1z m152 -1901 c54 -32 74 -76 75 -163 0 -70 -2 -75 -29 -97
-17 -13 -32 -23 -35 -23 -3 1 -22 -2 -41 -5 -19 -4 -51 -9 -70 -12 -51 -9
-773 -17 -793 -9 -15 5 -17 22 -16 133 1 69 4 137 8 151 14 49 26 51 461 48
387 -3 407 -4 440 -23z"/>
<path d="M4858 4405 c-2 -2 -34 -6 -73 -9 -71 -6 -102 -11 -135 -21 -10 -3
-27 -7 -37 -9 -49 -10 -187 -71 -258 -115 -175 -108 -309 -258 -400 -448 -36
-75 -82 -204 -91 -257 -2 -17 -7 -38 -9 -46 -36 -129 -24 -405 24 -572 125
-432 498 -704 956 -697 260 4 485 94 659 263 88 85 206 263 206 310 0 24 -43
66 -77 75 -31 9 -34 7 -63 -33 -41 -60 -121 -130 -185 -161 -176 -86 -421 -80
-622 16 -65 31 -190 125 -231 174 -86 100 -162 260 -188 393 -21 109 -23 230
-4 242 18 12 -30 10 640 14 300 2 561 7 580 11 76 15 117 41 131 81 11 35 15
166 6 204 -2 8 -7 33 -11 55 -14 71 -91 216 -148 276 -94 101 -217 178 -340
213 -53 16 -67 19 -133 31 -33 7 -192 14 -197 10z m102 -209 c38 -9 112 -48
139 -75 79 -79 118 -219 84 -303 -18 -45 -46 -62 -123 -76 -69 -13 -670 -15
-689 -3 -40 26 27 200 115 297 123 134 306 196 474 160z"/>
</g>
</svg>
