<!-- Generator: Adobe Illustrator 22.0.1, SVG Export Plug-In  -->
<svg version="1.1"
	 xmlns="http://www.w3.org/2000/svg" xmlns:xlink="http://www.w3.org/1999/xlink" xmlns:a="http://ns.adobe.com/AdobeSVGViewerExtensions/3.0/"
	 x="0px" y="0px" width="720px" height="720px" viewBox="0 0 720 720" style="enable-background:new 0 0 720 720 "
	 xml:space="preserve">
<style type="text/css">
	.st0{fill:none }
	.st1{fill:#000000 }
</style>
<defs>
</defs>
<g id="xNvPXt_2_">
	<g>
		<path class="st0" d="M0,720C0,480,0,240,0,0c240,0,480,0,720,0c0,240,0,480,0,720C480,720,240,720,0,720z M316.3,366.9
			c0.1,1.7,0.2,3,0.2,4.3c0,40,0.2,80-0.1,120c-0.2,21.5-2,42.9-6.5,64c-6.4,30-21.1,54-49.1,68.5c-4.4,2.3-3.5,5.6-2,8.8
			c1.9,4,6.1,5.3,9.3,2.9c12.7-9.4,26-18.2,37.7-28.7c21.6-19.4,37.2-43,43.6-71.8c4.4-19.4,5.2-39.2,5.4-59.1
			c0.7-60.8,1.2-121.6,1.9-182.4c0.1-5-2-6.3-7.3-5.4c-12.1,2.1-24.2,5.2-36.4,5.6c-28.8,1.2-57.6,1.1-86.4,1.4
			c-7.3,0.1-9.6-2.2-9.7-9.5c-0.4-24.8,0.1-49.6,5-74.1c3.2-15.9,7.8-31.3,18-44.4c13.9-17.9,36.5-22.4,56.3-11.4
			c11.5,6.4,20,15.9,26.8,26.9c5.3,8.6,12.9,11,22.3,7.1c11.4-4.7,16.2-17,11.2-29.2c-4.2-10.1-12.2-16.6-21.6-21.3
			c-20.7-10.5-42.5-11.9-64.7-6.5c-36.2,8.7-60.1,32.2-75.2,65.3c-12.3,26.8-16.4,55.4-16.5,84.6c0,7.2-2.8,11.6-9.1,14.4
			c-6.2,2.8-12.2,6.1-18.4,8.8c-3.5,1.6-3.8,4.2-3.4,7.4c0.5,3.5,2.8,4,5.8,3.9c5.5-0.1,11-0.1,16.5,0c6.5,0.1,7.8,1.4,8.4,7.8
			c0.1,1.3,0.1,2.7,0.1,4c0,41,0.1,82-0.1,123c0,6.8-0.7,13.6-1.6,20.4c-0.9,6.4-4.8,10.5-11.3,11.8c-5.1,1-10.2,1.8-15.3,2.4
			c-5.1,0.5-5.7,3.8-5.3,7.8c0.4,4.1,2.2,6,6.8,5.8c18.8-0.7,37.6-1.3,56.4-1.4c13.5,0,27,0.7,40.4,1.4c4.9,0.3,6-2.5,6.4-6.3
			c0.3-3.9-0.4-6.9-5.4-7.1c-5.3-0.3-10.6-1-15.9-1.5c-9.7-0.9-14.5-5.3-15.7-14.9c-0.6-4.9-1-10-1.1-14.9c-0.1-27.7,0-55.3,0-83
			c0-1.6,0-3.3,0-5.3C250.3,366.9,283,366.9,316.3,366.9z M488.9,367.8c15.7,0,31.3,0.2,47-0.1c7.6-0.2,15.3-1,22.8-2.4
			c7.6-1.4,9.6-4.3,10.5-11.9c3.1-27.3-13.7-54.5-40.9-66.4c-40.4-17.6-91.7-4.4-119.3,31.1c-22.7,29.1-29.7,62.4-23.6,98.4
			c3.6,21.4,12.8,40.6,29.3,54.9c32.9,28.5,70.2,33,109.9,16.2c20.6-8.7,34.9-24.5,44.3-44.8c1.7-3.7,0.2-7.6-3.9-9.9
			c-3.5-2-6.1-1.6-8.8,2c-3.4,4.5-7.2,8.9-11.7,12.1c-18,12.9-38,13-58.2,7c-32.8-9.8-54.7-41.5-54.8-78.2c0-7.2,0.7-8.1,7.9-8.1
			C455.9,367.8,472.4,367.8,488.9,367.8z"/>
		<path class="st1" d="M316.3,366.9c-33.3,0-66,0-99.3,0c0,2,0,3.7,0,5.3c0,27.7-0.1,55.3,0,83c0,5,0.4,10,1.1,14.9
			c1.2,9.7,6,14,15.7,14.9c5.3,0.5,10.6,1.3,15.9,1.5c4.9,0.2,5.7,3.2,5.4,7.1c-0.3,3.8-1.4,6.6-6.4,6.3
			c-13.5-0.7-26.9-1.4-40.4-1.4c-18.8,0.1-37.6,0.7-56.4,1.4c-4.6,0.2-6.4-1.7-6.8-5.8c-0.4-4,0.2-7.2,5.3-7.8
			c5.1-0.5,10.2-1.4,15.3-2.4c6.4-1.2,10.4-5.4,11.3-11.8c0.9-6.7,1.6-13.6,1.6-20.4c0.1-41,0.1-82,0.1-123c0-1.3,0-2.7-0.1-4
			c-0.6-6.5-1.8-7.7-8.4-7.8c-5.5-0.1-11-0.1-16.5,0c-3,0.1-5.3-0.4-5.8-3.9c-0.5-3.2-0.2-5.8,3.4-7.4c6.2-2.8,12.2-6,18.4-8.8
			c6.3-2.9,9.1-7.2,9.1-14.4c0.1-29.2,4.3-57.8,16.5-84.6c15.1-33,39-56.6,75.2-65.3c22.2-5.3,44-3.9,64.7,6.5
			c9.4,4.8,17.4,11.2,21.6,21.3c5,12.2,0.3,24.5-11.2,29.2c-9.4,3.9-16.9,1.5-22.3-7.1c-6.8-11.1-15.3-20.5-26.8-26.9
			c-19.8-11-42.4-6.4-56.3,11.4c-10.2,13.1-14.8,28.5-18,44.4c-4.9,24.5-5.4,49.3-5,74.1c0.1,7.3,2.5,9.6,9.7,9.5
			c28.8-0.3,57.6-0.2,86.4-1.4c12.2-0.5,24.3-3.5,36.4-5.6c5.2-0.9,7.3,0.4,7.3,5.4c-0.6,60.8-1.2,121.6-1.9,182.4
			c-0.2,19.8-1,39.6-5.4,59.1c-6.5,28.8-22,52.4-43.6,71.8c-11.7,10.5-25,19.3-37.7,28.7c-3.3,2.4-7.4,1.1-9.3-2.9
			c-1.6-3.2-2.5-6.5,2-8.8c28-14.4,42.7-38.5,49.1-68.5c4.5-21.1,6.3-42.5,6.5-64c0.3-40,0.1-80,0.1-120
			C316.5,369.9,316.4,368.6,316.3,366.9z M257.9,350.9c4.8,0,9.7,0.3,14.5-0.1c11.6-0.8,23.2-1.7,34.7-2.9c4.9-0.5,8.3-3.1,8.8-8.5
			c1.5-14.4-4.8-22.1-19.2-22.2c-23.3-0.2-46.6-0.2-69.9-0.1c-7.1,0-9.6,2.5-9.8,9.7c-0.2,6.3,0.2,12.7-0.1,19
			c-0.3,4.4,1.6,5.3,5.5,5.3C234.2,350.8,246.1,350.9,257.9,350.9z"/>
		<path class="st1" d="M488.9,367.8c-16.5,0-33-0.1-49.5,0c-7.2,0-8,0.9-7.9,8.1c0,36.7,21.9,68.4,54.8,78.2c20.2,6,40.2,5.9,58.2-7
			c4.5-3.2,8.3-7.7,11.7-12.1c2.7-3.6,5.3-4,8.8-2c4,2.3,5.6,6.2,3.9,9.9c-9.4,20.3-23.7,36.1-44.3,44.8
			c-39.6,16.7-76.9,12.3-109.9-16.2c-16.5-14.3-25.7-33.5-29.3-54.9c-6.1-36,0.9-69.2,23.6-98.4c27.6-35.5,78.9-48.7,119.3-31.1
			c27.2,11.8,43.9,39,40.9,66.4c-0.9,7.6-2.9,10.5-10.5,11.9c-7.5,1.4-15.2,2.2-22.8,2.4C520.2,368.1,504.6,367.8,488.9,367.8z
			 M470,347C470,347,470,347,470,347c2.3,0,4.7,0.1,7,0c10.9-0.6,21.9-0.7,32.8-2c6.7-0.8,9.8-5.5,10.1-12.3
			c0.7-14.7-8.7-28-22.9-31.9c-29.2-8-55.8,15.1-61,39.9c-1,4.8,0.3,6.2,5.6,6.3C451,347.1,460.5,347,470,347z"/>
		<path class="st0" d="M257.9,350.9c-11.8,0-23.6-0.1-35.5,0.1c-3.9,0.1-5.8-0.8-5.5-5.3c0.4-6.3,0-12.7,0.1-19
			c0.2-7.2,2.7-9.7,9.8-9.7c23.3,0,46.6-0.1,69.9,0.1c14.4,0.1,20.7,7.8,19.2,22.2c-0.6,5.5-4,8-8.8,8.5
			c-11.6,1.2-23.1,2.1-34.7,2.9C267.6,351.2,262.7,350.9,257.9,350.9z"/>
		<path class="st0" d="M470,347c-9.5,0-19,0.1-28.5,0c-5.3-0.1-6.6-1.5-5.6-6.3c5.2-24.8,31.9-47.8,61-39.9
			c14.2,3.9,23.6,17.2,22.9,31.9c-0.3,6.8-3.4,11.4-10.1,12.3c-10.9,1.3-21.8,1.4-32.8,2C474.7,347.1,472.3,347,470,347
			C470,347,470,347,470,347z"/>
	</g>
</g>
</svg>